<?xml version="1.0" standalone="no"?>
<!DOCTYPE svg PUBLIC "-//W3C//DTD SVG 20010904//EN"
 "http://www.w3.org/TR/2001/REC-SVG-20010904/DTD/svg10.dtd">
<svg version="1.0" xmlns="http://www.w3.org/2000/svg"
 width="512.000000pt" height="512.000000pt" viewBox="0 0 512.000000 512.000000"
 preserveAspectRatio="xMidYMid meet">

<g transform="translate(0.000000,512.000000) scale(0.100000,-0.100000)"
fill="#000000" stroke="none">
<path d="M2520 5038 c-20 -45 -201 -733 -198 -753 3 -19 11 -20 219 -23 184
-2 218 0 229 13 10 13 -4 78 -85 378 -54 199 -101 372 -106 385 -5 13 -17 22
-29 22 -12 0 -25 -10 -30 -22z"/>
<path d="M3951 4147 c-184 -106 -339 -201 -345 -210 -9 -14 13 -41 147 -174
126 -127 160 -156 173 -148 8 6 103 162 210 348 195 337 212 377 166 377 -9 0
-167 -87 -351 -193z"/>
<path d="M682 4278 c-7 -7 -12 -18 -12 -25 0 -22 342 -643 354 -643 17 0 316
303 316 321 0 10 -113 76 -318 187 -175 95 -320 172 -323 172 -3 0 -10 -5 -17
-12z"/>
<path d="M2429 3909 c-465 -38 -884 -327 -1097 -754 -94 -189 -134 -369 -134
-595 0 -226 40 -406 134 -595 183 -367 514 -631 909 -725 176 -41 407 -44 592
-5 579 120 1025 631 1065 1220 35 513 -199 979 -634 1257 -230 147 -543 221
-835 197z"/>
<path d="M389 2691 c-196 -54 -363 -101 -373 -104 -17 -7 -22 -42 -7 -51 13
-8 750 -206 766 -206 29 0 35 40 35 230 0 113 -4 199 -10 211 -6 11 -20 19
-33 18 -12 -1 -182 -45 -378 -98z"/>
<path d="M4327 2783 c-4 -3 -7 -105 -7 -225 0 -185 2 -220 15 -224 13 -5 694
171 763 197 21 8 31 42 14 53 -11 7 -752 206 -766 206 -7 0 -16 -3 -19 -7z"/>
<path d="M1158 1493 c-35 -42 -389 -674 -386 -690 2 -10 11 -19 20 -21 16 -3
666 364 696 393 10 9 11 18 4 31 -15 27 -296 304 -309 304 -5 0 -17 -8 -25
-17z"/>
<path d="M3601 1356 c-97 -97 -152 -159 -149 -170 3 -16 668 -406 693 -406 7
0 18 7 25 15 10 12 -22 74 -185 357 -177 309 -208 357 -225 358 -3 0 -74 -69
-159 -154z"/>
<path d="M2327 853 c-4 -3 -7 -14 -7 -24 0 -21 185 -714 200 -747 13 -29 48
-29 59 1 5 12 52 185 106 384 80 298 95 365 85 378 -10 13 -47 15 -225 15
-116 0 -215 -3 -218 -7z"/>
</g>
</svg>
